<svg width="32" height="32" xmlns="http://www.w3.org/2000/svg">

 <g>
  <title>background</title>
  <rect fill="none" id="canvas_background" height="402" width="582" y="-1" x="-1"/>
 </g>
 <g>
  <title>Layer 1</title>
  <path id="svg_1" fill="#00b0ff" d="m28,0l-24,0c-2.259,0 -4,1.741 -4,4l0,24c0,2.258 1.741,4 4,4l24,0c2.258,0 4,-1.742 4,-4l0,-24c0,-2.259 -1.742,-4 -4,-4zm-11.977,9.714c3.549,0 6.425,2.787 6.425,6.226c0,3.437 -2.876,6.226 -6.425,6.226c-3.546,0 -6.423,-2.789 -6.423,-6.226c0.001,-3.439 2.878,-6.226 6.423,-6.226zm11.977,17.286c0,0.701 -0.3,1 -1,1l-22,0c-0.699,0 -1,-0.299 -1,-1l0,-14l2.493,0.542c-0.267,0.87 -0.413,1.79 -0.413,2.745c0,5.318 4.454,9.634 9.943,9.634c5.492,0 9.944,-4.315 9.944,-9.634c0,-0.955 -0.145,-1.875 -0.412,-2.745l2.445,-0.542l0,14zm0,-18c0,0.553 -0.447,1 -1,1l-4,0c-0.553,0 -1,-0.447 -1,-1l0,-4c0,-0.553 0.447,-1 1,-1l4,0c0.553,0 1,0.447 1,1l0,4z"/>
 </g>
</svg>