<svg width="1791.9999999999998" height="1791.9999999999998" xmlns="http://www.w3.org/2000/svg">

 <g>
  <title>background</title>
  <rect fill="none" id="canvas_background" height="402" width="582" y="-1" x="-1"/>
 </g>
 <g>
  <title>Layer 1</title>
  <path fill="#00b0ff" id="svg_1" d="m1413,896q0,-27 -18,-45l-91,-91l-362,-362q-18,-18 -45,-18t-45,18l-91,91q-18,18 -18,45t18,45l189,189l-502,0q-26,0 -45,19t-19,45l0,128q0,26 19,45t45,19l502,0l-189,189q-19,19 -19,45t19,45l91,91q18,18 45,18t45,-18l362,-362l91,-91q18,-18 18,-45zm251,0q0,209 -103,385.5t-279.5,279.5t-385.5,103t-385.5,-103t-279.5,-279.5t-103,-385.5t103,-385.5t279.5,-279.5t385.5,-103t385.5,103t279.5,279.5t103,385.5z"/>
 </g>
</svg>